<svg width="20" height="23" viewBox="0 0 39 36" fill="none" xmlns="http://www.w3.org/2000/svg">
<path d="M28.6222 23.1188C30.9824 20.1652 32.0394 16.5031 31.582 12.8654C31.1245 9.22763 29.1863 5.88242 26.155 3.49902C23.1237 1.11562 19.223 -0.13021 15.2332 0.0107838C11.2433 0.151777 7.45867 1.66919 4.63636 4.25945C1.81404 6.84971 0.162206 10.3218 0.0113255 13.981C-0.139555 17.6403 1.22165 21.2169 3.8226 23.9952C6.42356 26.7735 10.0724 28.5488 14.0393 28.9657C18.0061 29.3826 21.9983 28.4106 25.2172 26.2439H25.2147C25.2879 26.3333 25.3659 26.4183 25.4536 26.501L34.8376 35.1073C35.2947 35.5267 35.9147 35.7625 36.5612 35.7627C37.2078 35.7629 37.828 35.5275 38.2853 35.1084C38.7427 34.6892 38.9998 34.1206 39 33.5276C39.0002 32.9347 38.7436 32.3659 38.2866 31.9464L28.9025 23.3401C28.8154 23.2592 28.7217 23.1867 28.6222 23.1188ZM29.2511 14.526C29.2511 16.1405 28.9043 17.7393 28.2306 19.2309C27.5569 20.7226 26.5695 22.0779 25.3246 23.2196C24.0798 24.3613 22.602 25.2669 20.9755 25.8848C19.349 26.5026 17.6058 26.8206 15.8453 26.8206C14.0849 26.8206 12.3416 26.5026 10.7152 25.8848C9.08873 25.2669 7.61089 24.3613 6.36605 23.2196C5.12121 22.0779 4.13375 20.7226 3.46005 19.2309C2.78635 17.7393 2.4396 16.1405 2.4396 14.526C2.4396 11.2652 3.85198 8.13799 6.36605 5.83229C8.88011 3.52659 12.2899 2.23126 15.8453 2.23126C19.4008 2.23126 22.8106 3.52659 25.3246 5.83229C27.8387 8.13799 29.2511 11.2652 29.2511 14.526Z" fill="black"/>
</svg>