      <svg
        width="264"
        height="43"
        viewBox="0 0 264 43"
        fill="none"
        xmlns="http://www.w3.org/2000/svg"
      >
        <rect x="49.9131" y="16" width="4.17391" height="12" fill="#FC2B2B" />
        <rect x="46" y="19.9131" width="12" height="4.17391" fill="#FC2B2B" />
        <path
          d="M26.2 8.972L15.688 35H11.314L0.802 8.972H4.69C5.11 8.972 5.452 9.074 5.716 9.278C5.98 9.482 6.178 9.746 6.31 10.07L12.448 25.946C12.652 26.462 12.844 27.032 13.024 27.656C13.216 28.268 13.396 28.91 13.564 29.582C13.708 28.91 13.864 28.268 14.032 27.656C14.2 27.032 14.386 26.462 14.59 25.946L20.692 10.07C20.788 9.794 20.974 9.542 21.25 9.314C21.538 9.086 21.886 8.972 22.294 8.972H26.2ZM33.7541 35H28.8941V8.972H33.7541V35ZM57.4556 28.862C57.7196 28.862 57.9536 28.964 58.1576 29.168L60.0656 31.238C59.0096 32.546 57.7076 33.548 56.1596 34.244C54.6236 34.94 52.7756 35.288 50.6156 35.288C48.6836 35.288 46.9436 34.958 45.3956 34.298C43.8596 33.638 42.5456 32.72 41.4536 31.544C40.3616 30.368 39.5216 28.964 38.9336 27.332C38.3576 25.7 38.0696 23.918 38.0696 21.986C38.0696 20.03 38.3816 18.242 39.0056 16.622C39.6296 14.99 40.5056 13.586 41.6336 12.41C42.7736 11.234 44.1296 10.322 45.7016 9.674C47.2736 9.014 49.0136 8.684 50.9216 8.684C52.8176 8.684 54.4976 8.996 55.9616 9.62C57.4376 10.244 58.6916 11.06 59.7236 12.068L58.1036 14.318C58.0076 14.462 57.8816 14.588 57.7256 14.696C57.5816 14.804 57.3776 14.858 57.1136 14.858C56.9336 14.858 56.7476 14.81 56.5556 14.714C56.3636 14.606 56.1536 14.48 55.9256 14.336C55.6976 14.18 55.4336 14.012 55.1336 13.832C54.8336 13.652 54.4856 13.49 54.0896 13.346C53.6936 13.19 53.2316 13.064 52.7036 12.968C52.1876 12.86 51.5876 12.806 50.9036 12.806C49.7396 12.806 48.6716 13.016 47.6996 13.436C46.7396 13.844 45.9116 14.444 45.2156 15.236C44.5196 16.016 43.9796 16.976 43.5956 18.116C43.2116 19.244 43.0196 20.534 43.0196 21.986C43.0196 23.45 43.2236 24.752 43.6316 25.892C44.0516 27.032 44.6156 27.992 45.3236 28.772C46.0316 29.552 46.8656 30.152 47.8256 30.572C48.7856 30.98 49.8176 31.184 50.9216 31.184C51.5816 31.184 52.1756 31.148 52.7036 31.076C53.2436 31.004 53.7356 30.89 54.1796 30.734C54.6356 30.578 55.0616 30.38 55.4576 30.14C55.8656 29.888 56.2676 29.582 56.6636 29.222C56.7836 29.114 56.9096 29.03 57.0416 28.97C57.1736 28.898 57.3116 28.862 57.4556 28.862ZM81.5624 12.95H73.7144V35H68.8724V12.95H61.0244V8.972H81.5624V12.95ZM108.911 21.986C108.911 23.894 108.593 25.664 107.957 27.296C107.333 28.916 106.445 30.32 105.293 31.508C104.141 32.696 102.755 33.626 101.135 34.298C99.5154 34.958 97.7154 35.288 95.7354 35.288C93.7674 35.288 91.9734 34.958 90.3534 34.298C88.7334 33.626 87.3414 32.696 86.1774 31.508C85.0254 30.32 84.1314 28.916 83.4954 27.296C82.8594 25.664 82.5414 23.894 82.5414 21.986C82.5414 20.078 82.8594 18.314 83.4954 16.694C84.1314 15.062 85.0254 13.652 86.1774 12.464C87.3414 11.276 88.7334 10.352 90.3534 9.692C91.9734 9.02 93.7674 8.684 95.7354 8.684C97.0554 8.684 98.2974 8.84 99.4614 9.152C100.625 9.452 101.693 9.884 102.665 10.448C103.637 11 104.507 11.678 105.275 12.482C106.055 13.274 106.715 14.162 107.255 15.146C107.795 16.13 108.203 17.198 108.479 18.35C108.767 19.502 108.911 20.714 108.911 21.986ZM103.961 21.986C103.961 20.558 103.769 19.28 103.385 18.152C103.001 17.012 102.455 16.046 101.747 15.254C101.039 14.462 100.175 13.856 99.1554 13.436C98.1474 13.016 97.0074 12.806 95.7354 12.806C94.4634 12.806 93.3174 13.016 92.2974 13.436C91.2894 13.856 90.4254 14.462 89.7054 15.254C88.9974 16.046 88.4514 17.012 88.0674 18.152C87.6834 19.28 87.4914 20.558 87.4914 21.986C87.4914 23.414 87.6834 24.698 88.0674 25.838C88.4514 26.966 88.9974 27.926 89.7054 28.718C90.4254 29.498 91.2894 30.098 92.2974 30.518C93.3174 30.938 94.4634 31.148 95.7354 31.148C97.0074 31.148 98.1474 30.938 99.1554 30.518C100.175 30.098 101.039 29.498 101.747 28.718C102.455 27.926 103.001 26.966 103.385 25.838C103.769 24.698 103.961 23.414 103.961 21.986ZM121.03 21.356C121.942 21.356 122.734 21.242 123.406 21.014C124.09 20.786 124.648 20.474 125.08 20.078C125.524 19.67 125.854 19.19 126.07 18.638C126.286 18.086 126.394 17.48 126.394 16.82C126.394 15.5 125.956 14.486 125.08 13.778C124.216 13.07 122.89 12.716 121.102 12.716H118.006V21.356H121.03ZM133.486 35H129.112C128.284 35 127.684 34.676 127.312 34.028L121.84 25.694C121.636 25.382 121.408 25.16 121.156 25.028C120.916 24.896 120.556 24.83 120.076 24.83H118.006V35H113.164V8.972H121.102C122.866 8.972 124.378 9.158 125.638 9.53C126.91 9.89 127.948 10.4 128.752 11.06C129.568 11.72 130.168 12.512 130.552 13.436C130.936 14.348 131.128 15.356 131.128 16.46C131.128 17.336 130.996 18.164 130.732 18.944C130.48 19.724 130.108 20.432 129.616 21.068C129.136 21.704 128.536 22.262 127.816 22.742C127.108 23.222 126.298 23.6 125.386 23.876C125.698 24.056 125.986 24.272 126.25 24.524C126.514 24.764 126.754 25.052 126.97 25.388L133.486 35ZM141.156 35H136.296V8.972H141.156V35ZM160.736 25.172L157.568 16.514C157.412 16.13 157.25 15.674 157.082 15.146C156.914 14.618 156.746 14.048 156.578 13.436C156.422 14.048 156.26 14.624 156.092 15.164C155.924 15.692 155.762 16.154 155.606 16.55L152.456 25.172H160.736ZM169.286 35H165.542C165.122 35 164.78 34.898 164.516 34.694C164.252 34.478 164.054 34.214 163.922 33.902L161.978 28.592H151.196L149.252 33.902C149.156 34.178 148.97 34.43 148.694 34.658C148.418 34.886 148.076 35 147.668 35H143.888L154.13 8.972H159.062L169.286 35Z"
          fill="#576CBC"
        />
        <path
          d="M195.14 30.716C195.26 30.716 195.362 30.758 195.446 30.842L196.166 31.616C195.638 32.18 195.062 32.69 194.438 33.146C193.826 33.59 193.148 33.974 192.404 34.298C191.672 34.61 190.862 34.85 189.974 35.018C189.098 35.198 188.132 35.288 187.076 35.288C185.312 35.288 183.692 34.982 182.216 34.37C180.752 33.746 179.492 32.87 178.436 31.742C177.38 30.602 176.558 29.228 175.97 27.62C175.394 26.012 175.106 24.224 175.106 22.256C175.106 20.324 175.406 18.56 176.006 16.964C176.606 15.368 177.446 14 178.526 12.86C179.606 11.708 180.902 10.82 182.414 10.196C183.926 9.56 185.594 9.242 187.418 9.242C189.158 9.242 190.7 9.512 192.044 10.052C193.388 10.592 194.612 11.354 195.716 12.338L195.158 13.148C195.062 13.292 194.912 13.364 194.708 13.364C194.564 13.364 194.33 13.232 194.006 12.968C193.682 12.704 193.232 12.416 192.656 12.104C192.08 11.78 191.36 11.486 190.496 11.222C189.644 10.958 188.618 10.826 187.418 10.826C185.882 10.826 184.472 11.09 183.188 11.618C181.916 12.146 180.818 12.902 179.894 13.886C178.982 14.87 178.268 16.07 177.752 17.486C177.236 18.902 176.978 20.492 176.978 22.256C176.978 24.056 177.236 25.664 177.752 27.08C178.28 28.496 179 29.696 179.912 30.68C180.824 31.652 181.898 32.402 183.134 32.93C184.382 33.446 185.726 33.704 187.166 33.704C188.078 33.704 188.888 33.644 189.596 33.524C190.316 33.404 190.976 33.224 191.576 32.984C192.176 32.744 192.734 32.45 193.25 32.102C193.766 31.754 194.276 31.346 194.78 30.878C194.84 30.83 194.9 30.794 194.96 30.77C195.02 30.734 195.08 30.716 195.14 30.716ZM214.824 25.748L209.64 12.878C209.46 12.458 209.286 11.954 209.118 11.366C209.046 11.654 208.968 11.93 208.884 12.194C208.8 12.446 208.71 12.68 208.614 12.896L203.43 25.748H214.824ZM220.458 35H219.036C218.868 35 218.73 34.958 218.622 34.874C218.514 34.778 218.43 34.658 218.37 34.514L215.382 27.116H202.872L199.884 34.514C199.836 34.646 199.752 34.76 199.632 34.856C199.512 34.952 199.368 35 199.2 35H197.796L208.218 9.53H210.036L220.458 35ZM230.944 22.112C232.072 22.112 233.08 21.98 233.968 21.716C234.868 21.44 235.624 21.05 236.236 20.546C236.86 20.042 237.334 19.436 237.658 18.728C237.982 18.02 238.144 17.222 238.144 16.334C238.144 14.522 237.55 13.178 236.362 12.302C235.186 11.426 233.464 10.988 231.196 10.988H226.534V22.112H230.944ZM242.248 35H240.664C240.46 35 240.286 34.97 240.142 34.91C240.01 34.838 239.884 34.712 239.764 34.532L231.592 24.2C231.496 24.068 231.394 23.954 231.286 23.858C231.19 23.762 231.076 23.69 230.944 23.642C230.824 23.582 230.674 23.54 230.494 23.516C230.326 23.492 230.116 23.48 229.864 23.48H226.534V35H224.68V9.53H231.196C234.124 9.53 236.314 10.1 237.766 11.24C239.23 12.368 239.962 14.03 239.962 16.226C239.962 17.198 239.794 18.086 239.458 18.89C239.122 19.694 238.636 20.402 238 21.014C237.376 21.614 236.614 22.106 235.714 22.49C234.826 22.874 233.824 23.132 232.708 23.264C232.996 23.444 233.254 23.684 233.482 23.984L242.248 35ZM261.847 33.47L261.811 35H246.547V9.53H261.811V11.06H248.401V21.356H259.561V22.85H248.401V33.47H261.847Z"
          fill="#576CBC"
        />
      </svg>